PathFileType  4	(X/Y/Z) C:\Users\antoi\Documents\MyRepositories\mobilecap\ResultsAnalysis
DataRate	CameraRate	NumFrames	NumMarkers	Units	OrigDataRate	OrigDataStartFrame	OrigNumFrames
100.0	100.0	5	51	mm	100.0	86	170
Frame#	Time	r_knee			r_shank_antsup			r_ankle			r_calc			r_5meta			r_toe			L_knee			L_shank_antsup			L_ankle			L_calc			L_5meta			L_toe			r_sh2			r_sh3			r_sh4			L_sh2			L_sh3			r_thigh1			r_thigh2			r_thigh3			r_thigh4			r_thigh5			L_thigh1			L_thigh2			L_thigh3			L_thigh4			r.ASIS			r.PSIS			L.ASIS			L.PSIS			C7			R_Shoulder			L_Shoulder			R_Sternum			L_Sternum			R_humerus			R_elbow_med			R_elbow_lat			R_forearm			R_wrist_radius			R_wrist_ulna			L_humerus			L_elbow_med			L_elbow_lat			L_forearm			L_wrist_radius			L_wrist_ulna			R_HJC			L_HJC			R_HJC_reg			L_HJC_reg			
		X1	Y1	Z1	X2	Y2	Z2	X3	Y3	Z3	X4	Y4	Z4	X5	Y5	Z5	X6	Y6	Z6	X7	Y7	Z7	X8	Y8	Z8	X9	Y9	Z9	X10	Y10	Z10	X11	Y11	Z11	X12	Y12	Z12	X13	Y13	Z13	X14	Y14	Z14	X15	Y15	Z15	X16	Y16	Z16	X17	Y17	Z17	X18	Y18	Z18	X19	Y19	Z19	X20	Y20	Z20	X21	Y21	Z21	X22	Y22	Z22	X23	Y23	Z23	X24	Y24	Z24	X25	Y25	Z25	X26	Y26	Z26	X27	Y27	Z27	X28	Y28	Z28	X29	Y29	Z29	X30	Y30	Z30	X31	Y31	Z31	X32	Y32	Z32	X33	Y33	Z33	X34	Y34	Z34	X35	Y35	Z35	X36	Y36	Z36	X37	Y37	Z37	X38	Y38	Z38	X39	Y39	Z39	X40	Y40	Z40	X41	Y41	Z41	X42	Y42	Z42	X43	Y43	Z43	X44	Y44	Z44	X45	Y45	Z45	X46	Y46	Z46	X47	Y47	Z47	X48	Y48	Z48	X49	Y49	Z49	X50	Y50	Z50	X51	Y51	Z51	

86	0.85000000	539.08178	450.72859	-79.67315	491.72266	335.58929	-96.63175	258.30491	180.61688	-130.83393	203.77827	187.19428	-188.20020	297.42755	53.02435	-109.83288	342.87263	49.04033	-149.76318	798.28433	472.19836	-363.15694	845.80437	381.09748	-307.96384	818.78755	86.62091	-335.25539	768.17270	51.53608	-292.73662	941.61772	37.76713	-340.63916	975.56000	58.33168	-283.91391	413.59547	259.40310	-116.00942	444.83778	373.03510	-48.88215	356.05692	309.26146	-78.99684	812.07179	391.55365	-388.31277	825.65822	271.43214	-393.86654	730.62881	710.91203	-66.99558	705.51262	602.99768	-75.07417	648.62691	589.97455	-39.37801	629.35867	729.39078	-16.29360	600.28808	617.48129	-28.28403	798.28293	771.13900	-371.17203	835.77633	640.19527	-363.34797	698.35105	746.07115	-416.52365	736.39151	610.48198	-400.61851	790.28641	880.96647	-85.84324	609.74066	952.01113	-138.17588	787.00646	927.27854	-327.79336	599.80069	966.06188	-254.40650	658.39995	1403.59294	-245.59503	735.47412	1381.98406	-100.85524	687.51054	1345.46582	-407.11667	779.13404	1339.25571	-239.98230	772.16247	1330.42741	-283.95910	746.24174	1261.01292	-21.97559	631.48753	1077.73755	-37.18070	673.15061	1082.44266	26.16097	717.16710	961.82535	38.93367	744.99798	861.26153	31.74104	715.78002	855.89622	57.87088	676.91336	1189.67685	-456.83024	605.03756	1015.90308	-365.93794	590.81508	1023.06415	-438.60182	604.16674	931.25603	-475.97643	610.56483	801.85827	-480.43740	579.00767	801.43619	-480.49839	694.94083	822.92127	-120.97039	695.06374	852.23100	-308.08140	714.59967	832.85770	-119.53724	700.84263	852.30406	-280.38243	
87	0.86000000	556.40971	448.96543	-79.44163	507.24601	334.56482	-96.16614	269.64014	187.05884	-128.98286	215.80923	197.22195	-185.96055	301.85075	57.07849	-109.39310	346.30735	50.35734	-149.37359	803.40610	472.62382	-362.52316	850.18756	380.96229	-307.11283	819.27415	86.96484	-334.32926	768.34221	51.57712	-292.39592	941.69266	37.91266	-340.44860	975.70892	58.01533	-283.53498	426.72790	260.44680	-115.28641	461.41969	373.32566	-48.12203	370.80811	311.98122	-77.53163	816.46807	391.73825	-387.43413	828.48992	271.47936	-392.90918	742.75264	712.44540	-67.95270	719.77210	603.99191	-75.59549	663.07902	590.18090	-39.78623	641.13397	729.26985	-17.70116	614.23416	616.96292	-29.16093	806.61476	771.40573	-371.34899	842.50994	640.01400	-363.40936	705.59576	747.17655	-416.01852	742.34041	611.11902	-399.80824	800.64226	882.97138	-86.41613	620.14594	954.38179	-138.61030	797.18576	928.34730	-328.13073	610.36488	968.28697	-254.85397	669.42542	1405.41815	-247.54201	747.87201	1384.72572	-103.28684	697.17098	1346.55902	-408.66993	790.28213	1341.01971	-242.26262	782.98381	1331.98173	-286.12979	758.56983	1264.44159	-23.29384	641.59055	1082.47319	-35.04403	684.64382	1087.04590	27.17571	728.48630	966.18791	39.42403	755.90401	865.38821	31.64161	727.43659	860.20447	58.32089	686.48076	1190.73240	-457.84375	616.13021	1016.82635	-365.94680	601.14258	1023.73836	-438.48642	615.04150	931.98936	-475.83426	623.04515	802.44935	-480.62992	591.10061	801.89123	-480.01348	704.96863	825.11568	-121.06820	705.00601	853.81231	-308.26350	724.63430	834.81852	-120.09406	711.11608	854.03604	-280.71896	
88	0.87000000	574.26238	447.01646	-78.99776	523.54640	333.28634	-95.66967	282.00471	193.52992	-127.04950	229.08110	207.44292	-183.56690	306.97335	61.68374	-108.85347	350.20265	52.06980	-148.92812	808.37031	473.08466	-362.11926	854.28863	380.85441	-306.29834	819.69203	87.30520	-333.60625	768.50729	51.63305	-292.12687	941.77497	38.02779	-340.30130	975.82098	57.74775	-283.24468	440.64856	261.37716	-114.58904	478.82238	373.23828	-47.20424	386.47151	314.39917	-75.85320	820.95485	392.00453	-386.71200	831.50631	271.61207	-392.15016	754.78897	714.02295	-68.61415	734.09127	605.00359	-75.64729	677.58993	590.39765	-39.81847	652.67428	729.12819	-19.09601	628.03559	616.47617	-30.02232	814.71230	771.68464	-371.66553	849.11770	639.89567	-363.68125	712.71245	748.25062	-415.64696	748.24528	611.75819	-399.20257	810.60080	884.95076	-86.81088	630.23935	956.76692	-139.15064	807.16028	929.19453	-328.38639	620.73222	970.42545	-255.36054	680.36506	1407.16477	-249.36659	759.96571	1387.33691	-105.59504	706.90648	1347.86016	-410.12891	801.33532	1342.77283	-244.35858	793.73740	1333.55424	-288.11789	770.63077	1267.68778	-24.52749	651.63653	1086.98947	-32.90037	696.07746	1091.52009	28.19263	739.84014	970.50684	39.98823	766.95706	869.49451	31.76859	739.24036	864.47506	58.85530	695.92164	1192.06830	-458.91864	627.34054	1017.96089	-365.96954	611.44100	1024.67123	-438.36383	626.00142	932.98782	-475.67449	635.78008	803.33071	-480.85703	603.58029	802.56485	-479.59250	714.60474	827.30191	-121.04927	714.72077	855.22373	-308.35423	734.26087	836.74255	-120.51054	721.13083	855.60598	-280.98134	
89	0.88000000	592.63589	444.86111	-78.33661	540.55838	331.74884	-95.13816	295.35971	199.93584	-125.07303	243.54889	217.67080	-181.07893	312.91846	66.80121	-108.15507	354.74984	54.27691	-148.39975	813.27265	473.55705	-361.90639	858.10051	380.75789	-305.53480	820.04772	87.62962	-333.08213	768.68723	51.69462	-291.92170	941.85656	38.09990	-340.20026	975.91546	57.51725	-283.04148	455.34408	262.21765	-113.91194	496.99043	372.77137	-46.16213	403.03381	316.46689	-74.05183	825.56330	392.34692	-386.15541	834.72110	271.81263	-391.58504	766.70019	715.59608	-68.96252	748.46489	606.00117	-75.21520	692.13721	590.55802	-39.46080	663.96770	728.87825	-20.38507	641.72789	615.88518	-30.76274	822.69611	771.98321	-372.05617	855.69770	639.83445	-364.10471	720.06610	749.42221	-415.49962	754.22567	612.46003	-398.86152	820.17826	886.83105	-87.09527	640.05174	959.04572	-139.66930	816.91600	929.91294	-328.59833	630.84221	972.45587	-255.82022	691.22643	1408.80094	-251.08909	771.71884	1389.78013	-107.78011	716.77044	1349.27780	-411.52736	812.27899	1344.46522	-246.28977	804.40985	1335.08449	-289.93481	782.36901	1270.72829	-25.67208	661.65346	1091.19968	-30.94172	707.36314	1095.78575	29.13053	751.14844	974.71141	40.60998	778.05216	873.50212	32.13336	751.04547	868.65999	59.51267	705.30215	1193.57655	-460.06784	638.69810	1019.20574	-366.04480	621.69432	1025.78153	-438.25967	636.99661	934.16118	-475.50848	648.62528	804.44812	-481.07128	616.39313	803.36404	-479.22721	723.91512	829.38476	-120.96625	724.18452	856.51795	-308.38440	743.56812	838.53860	-120.84543	730.85281	857.05455	-281.20418	
90	0.89000000	611.50675	442.51735	-77.45605	558.17988	329.96694	-94.54825	309.62681	206.19515	-123.11288	259.10075	227.67664	-178.60886	319.84603	72.35725	-107.25342	360.20102	57.04395	-147.73866	818.13368	473.98752	-361.84321	861.62925	380.64372	-304.88548	820.36058	87.91541	-332.72052	768.89023	51.75057	-291.76390	941.92997	38.12554	-340.13958	976.00506	57.31689	-282.91378	470.77265	263.01038	-113.24158	515.82972	371.96770	-45.02266	420.43401	318.16931	-72.24003	830.19052	392.71788	-385.78027	838.01160	272.02818	-391.20570	778.45285	717.12550	-69.01321	762.88490	606.96694	-74.32867	706.70574	590.61300	-38.73136	675.02055	728.44880	-21.49867	655.38110	615.07482	-31.26982	830.64364	772.27253	-372.44821	862.28224	639.78687	-364.60228	727.87125	750.76424	-415.60466	760.29708	613.23602	-398.79841	829.41215	888.55267	-87.33750	649.61757	961.11041	-140.08106	826.45822	930.56382	-328.80076	640.66262	974.35143	-256.17061	702.01053	1410.29792	-252.72397	783.11874	1392.01727	-109.82913	726.79768	1350.71886	-412.88431	823.10266	1346.04670	-248.06602	814.99942	1336.52170	-291.58088	793.75348	1273.53646	-26.72814	671.64833	1095.02465	-29.30614	718.41319	1099.76112	29.93448	762.31987	978.71534	41.28293	789.09150	877.33536	32.74336	762.69969	872.69357	60.32822	714.70813	1195.14188	-461.28151	650.17960	1020.47287	-366.21120	631.89854	1026.97500	-438.20460	648.00975	935.41126	-475.36745	661.49270	805.72351	-481.23735	629.49127	804.19797	-478.91985	732.97096	831.28239	-120.87160	733.39957	857.72401	-308.38948	752.64638	840.12442	-121.16413	740.28448	858.40483	-281.42589	
